<!DOCTYPE svg PUBLIC "-//W3C//DTD SVG 20010904//EN" "http://www.w3.org/TR/2001/REC-SVG-20010904/DTD/svg10.dtd">
<svg version="1.0" xmlns="http://www.w3.org/2000/svg" width="1090px" height="1080px" viewBox="0 0 10900 10800" preserveAspectRatio="xMidYMid meet">
<g id="layer101" fill="#fff" stroke="none">
 <path d="M5337 10553 c-5 -4 -99 -11 -210 -15 -295 -10 -565 -42 -827 -98 -25 -5 -67 -14 -95 -19 -75 -15 -312 -77 -380 -99 -33 -11 -87 -28 -120 -37 -33 -10 -79 -26 -102 -36 -24 -11 -47 -19 -53 -19 -6 0 -18 -4 -28 -9 -9 -5 -29 -14 -44 -20 -16 -6 -40 -16 -55 -22 -16 -7 -37 -15 -48 -19 -11 -4 -40 -17 -65 -28 -25 -11 -67 -30 -95 -42 -27 -12 -59 -26 -69 -32 -11 -6 -81 -42 -155 -80 -206 -105 -247 -129 -434 -253 -243 -160 -320 -217 -492 -360 -33 -28 -72 -60 -86 -71 -90 -69 -457 -429 -529 -517 -14 -17 -47 -57 -75 -87 -27 -31 -57 -65 -65 -76 -35 -45 -105 -131 -122 -149 -52 -57 -278 -390 -376 -555 -81 -138 -252 -481 -252 -508 0 -7 -4 -12 -10 -12 -5 0 -10 -7 -10 -15 0 -8 -4 -23 -9 -33 -5 -9 -14 -30 -21 -47 -7 -16 -16 -38 -21 -47 -5 -10 -9 -24 -9 -33 0 -8 -9 -30 -20 -50 -11 -20 -20 -44 -20 -55 0 -10 -5 -22 -10 -25 -6 -3 -10 -15 -10 -26 0 -10 -4 -27 -9 -37 -5 -9 -15 -37 -22 -62 -7 -25 -16 -49 -21 -54 -4 -6 -8 -22 -8 -37 0 -15 -4 -31 -10 -34 -5 -3 -10 -19 -10 -36 0 -16 -4 -37 -9 -47 -15 -31 -31 -88 -31 -115 0 -14 -5 -29 -10 -32 -6 -3 -10 -24 -10 -45 0 -21 -5 -42 -10 -45 -6 -3 -10 -23 -10 -44 0 -20 -4 -41 -9 -46 -5 -6 -12 -30 -15 -55 -3 -25 -10 -76 -16 -115 -6 -38 -13 -95 -16 -125 -3 -30 -9 -64 -14 -75 -10 -21 -15 -79 -30 -380 -5 -104 -12 -235 -16 -289 -3 -62 -1 -107 5 -120 6 -12 13 -102 15 -201 6 -230 14 -345 26 -370 5 -11 11 -47 14 -80 3 -33 10 -91 16 -130 6 -38 13 -90 16 -115 3 -25 10 -49 15 -54 5 -6 9 -27 9 -47 0 -21 5 -41 10 -44 6 -3 10 -21 10 -40 0 -19 5 -37 10 -40 5 -3 10 -24 10 -45 0 -21 5 -42 10 -45 6 -3 10 -19 10 -35 0 -16 5 -32 10 -35 6 -3 10 -17 10 -30 0 -13 4 -34 9 -47 5 -13 19 -57 31 -98 12 -41 26 -84 30 -95 4 -11 13 -36 20 -55 7 -19 16 -44 20 -55 5 -11 25 -63 45 -115 149 -386 367 -776 624 -1120 48 -63 96 -126 106 -139 11 -13 36 -43 55 -66 19 -23 44 -53 54 -66 117 -146 455 -488 641 -647 110 -95 242 -200 348 -278 117 -85 437 -294 451 -294 3 0 34 -17 68 -38 57 -35 364 -189 448 -225 19 -8 53 -22 75 -32 54 -23 71 -30 135 -53 30 -11 75 -28 100 -37 100 -38 301 -101 365 -115 22 -5 58 -14 80 -20 22 -6 58 -15 80 -20 22 -5 60 -14 85 -20 305 -76 824 -131 1225 -131 211 1 491 12 510 21 11 5 58 11 105 14 82 5 160 15 285 35 33 5 83 12 110 16 28 4 59 10 70 15 11 5 36 11 55 14 48 7 177 36 255 57 22 5 56 14 75 19 19 5 53 13 75 19 45 12 329 107 360 120 11 5 47 19 80 32 33 12 88 35 123 51 34 15 65 28 69 28 16 0 293 141 438 223 155 87 489 306 570 373 22 19 90 74 150 122 419 337 825 777 1098 1187 91 136 90 134 110 160 9 13 17 25 17 28 0 3 27 50 60 106 33 55 80 140 104 188 25 48 52 99 60 113 7 14 18 36 24 50 6 14 28 61 48 105 73 162 172 432 222 610 26 92 50 182 56 210 4 17 11 48 17 70 6 22 14 60 19 85 5 25 14 70 20 100 11 52 16 85 41 245 65 428 65 1092 0 1520 -25 160 -30 193 -41 245 -6 30 -15 75 -20 100 -16 82 -42 188 -84 343 -40 145 -144 438 -213 597 -36 85 -199 400 -253 491 -33 56 -60 103 -60 105 0 2 -42 65 -92 141 -213 316 -392 535 -668 812 -244 247 -347 338 -570 513 -139 108 -435 311 -545 374 -11 6 -40 23 -65 37 -61 35 -404 207 -460 231 -25 10 -65 28 -90 38 -25 11 -54 23 -65 28 -19 7 -43 17 -97 39 -13 5 -41 15 -63 22 -22 7 -44 16 -50 19 -5 4 -30 12 -55 19 -25 7 -70 21 -100 32 -74 25 -278 78 -370 96 -41 9 -84 19 -95 24 -11 4 -36 10 -55 13 -51 9 -157 26 -220 37 -30 5 -84 12 -120 15 -36 3 -74 9 -85 14 -22 10 -101 16 -385 30 -107 5 -240 12 -295 15 -55 4 -104 3 -108 -2z m568 -104 c423 -39 691 -87 1015 -181 19 -5 47 -12 63 -15 15 -3 30 -9 33 -14 3 -5 18 -9 33 -9 15 0 31 -4 37 -8 5 -5 29 -14 54 -21 47 -14 83 -27 112 -42 10 -5 27 -9 38 -9 11 0 20 -4 20 -8 0 -4 21 -14 48 -21 26 -8 54 -18 62 -23 25 -13 150 -68 156 -68 3 0 76 -35 162 -78 427 -213 729 -416 1142 -769 100 -86 487 -479 560 -568 35 -44 72 -89 82 -100 10 -11 50 -60 88 -110 39 -49 77 -99 86 -110 48 -62 216 -324 292 -456 77 -135 232 -438 232 -454 0 -3 9 -27 21 -53 12 -26 26 -58 31 -72 6 -14 14 -33 19 -42 5 -10 9 -22 9 -28 0 -6 9 -29 19 -53 11 -23 25 -60 31 -82 7 -22 16 -48 21 -57 5 -10 9 -27 9 -38 0 -11 5 -29 10 -40 6 -11 15 -29 20 -40 6 -11 10 -31 10 -44 0 -14 4 -27 9 -30 5 -3 11 -20 14 -38 9 -55 18 -92 27 -113 5 -11 11 -33 14 -50 6 -36 21 -103 36 -165 6 -25 13 -67 16 -95 3 -27 9 -59 14 -70 5 -11 12 -45 15 -75 4 -30 11 -89 16 -130 26 -202 31 -326 32 -695 0 -368 -6 -509 -32 -700 -5 -38 -12 -97 -16 -130 -3 -33 -10 -69 -15 -80 -5 -11 -11 -40 -14 -65 -14 -105 -18 -126 -26 -145 -8 -19 -11 -30 -25 -115 -4 -19 -10 -44 -15 -55 -5 -11 -11 -32 -14 -47 -3 -16 -9 -40 -12 -55 -3 -16 -9 -37 -14 -48 -4 -11 -14 -40 -21 -65 -7 -25 -16 -49 -21 -54 -4 -6 -8 -22 -8 -37 0 -15 -4 -31 -10 -34 -5 -3 -10 -16 -10 -29 0 -12 -4 -26 -8 -32 -4 -5 -14 -27 -21 -49 -13 -41 -18 -54 -44 -115 -9 -19 -23 -55 -33 -80 -9 -25 -21 -49 -26 -54 -4 -6 -8 -16 -8 -22 0 -12 -112 -247 -144 -304 -8 -14 -47 -83 -87 -155 -65 -117 -241 -392 -258 -405 -4 -3 -24 -30 -44 -60 -58 -86 -217 -282 -331 -410 -79 -88 -416 -421 -471 -465 -28 -22 -57 -47 -65 -56 -35 -36 -155 -132 -290 -232 -192 -141 -207 -152 -330 -229 -103 -64 -122 -75 -245 -145 -91 -51 -339 -173 -353 -173 -7 0 -12 -4 -12 -9 0 -5 -20 -15 -45 -22 -25 -7 -45 -17 -45 -21 0 -4 -7 -8 -15 -8 -8 0 -23 -4 -33 -9 -19 -9 -32 -15 -144 -60 -13 -5 -39 -14 -58 -21 -19 -7 -44 -16 -55 -20 -19 -8 -78 -28 -195 -65 -30 -9 -82 -24 -115 -32 -103 -24 -128 -31 -185 -47 -30 -9 -69 -16 -85 -16 -17 0 -35 -4 -40 -9 -10 -9 -47 -15 -145 -27 -25 -3 -54 -9 -65 -14 -21 -10 -83 -18 -205 -26 -41 -3 -79 -10 -85 -15 -5 -5 -53 -9 -106 -9 -55 0 -101 -4 -104 -10 -8 -14 -862 -14 -870 0 -3 6 -51 10 -109 10 -56 0 -106 4 -111 9 -6 5 -41 12 -80 15 -136 11 -190 18 -200 27 -5 5 -33 9 -61 9 -29 0 -56 5 -59 10 -3 6 -20 10 -37 10 -18 0 -45 4 -62 9 -17 5 -80 21 -141 36 -238 57 -208 49 -400 111 -66 21 -131 44 -182 65 -13 5 -34 14 -48 19 -14 6 -36 15 -50 20 -14 6 -37 15 -52 21 -16 7 -37 15 -48 19 -138 55 -547 270 -700 369 -39 25 -78 51 -87 56 -72 45 -263 185 -362 266 -244 199 -294 243 -429 377 -240 236 -375 392 -606 692 -39 51 -219 327 -267 410 -104 180 -274 520 -274 549 0 5 -10 29 -21 53 -12 23 -26 54 -32 68 -5 14 -13 33 -18 42 -5 10 -9 25 -9 33 0 8 -5 24 -10 35 -5 11 -14 29 -20 40 -6 11 -10 29 -10 39 0 11 -4 23 -10 26 -5 3 -10 19 -10 35 0 16 -5 32 -10 35 -5 3 -10 17 -10 30 0 13 -4 27 -10 30 -5 3 -10 17 -10 30 0 13 -4 26 -9 29 -8 6 -11 18 -27 109 -3 20 -10 40 -15 43 -5 3 -9 20 -9 38 0 17 -4 36 -9 42 -5 5 -11 27 -14 49 -3 22 -11 63 -17 90 -35 158 -69 393 -76 530 -2 50 -9 99 -15 110 -6 13 -8 171 -5 440 5 488 14 601 75 960 6 33 16 83 22 110 5 28 13 67 16 88 3 20 9 40 14 43 5 3 9 20 9 39 0 19 5 37 10 40 6 3 10 21 10 40 0 19 4 37 10 40 5 3 10 19 10 35 0 16 5 32 10 35 6 3 10 19 10 35 0 16 5 32 10 35 6 3 10 17 10 30 0 13 5 27 10 30 6 3 10 17 10 30 0 13 5 27 10 30 6 3 10 17 10 30 0 13 5 27 10 30 6 3 10 15 10 26 0 10 4 27 9 37 9 17 23 51 40 95 4 12 13 34 20 50 6 15 15 37 20 50 40 102 201 426 275 552 288 492 695 977 1131 1350 39 33 79 68 90 79 11 10 45 37 75 60 30 22 57 43 60 46 8 9 158 120 225 167 68 48 292 190 345 219 19 10 37 21 40 24 3 3 25 16 50 28 25 13 95 50 155 82 61 32 169 83 240 114 72 31 138 61 147 66 10 6 23 10 28 10 6 0 30 9 52 20 23 11 48 20 55 20 7 0 21 4 31 9 29 15 65 28 112 42 25 7 49 16 55 21 5 4 21 8 36 8 15 0 31 5 34 10 3 6 16 10 29 10 12 0 26 4 31 8 6 5 35 14 65 21 30 7 69 17 85 22 37 10 224 54 318 74 15 3 72 12 125 20 53 8 129 19 167 25 286 44 915 59 1230 29z"/>
 <path d="M5370 10132 c0 -38 -3 -72 -6 -75 -4 -4 -44 14 -89 38 -45 25 -89 45 -99 45 -35 0 -12 -22 64 -60 46 -23 80 -47 80 -55 0 -8 -19 -29 -42 -46 -40 -28 -47 -30 -97 -24 -42 5 -52 4 -49 -6 3 -8 22 -18 42 -23 49 -11 106 5 150 44 18 16 36 27 40 23 3 -3 6 -35 6 -70 0 -59 -2 -64 -26 -73 -14 -6 -88 -10 -164 -10 -162 0 -145 -15 -155 140 -10 174 -15 200 -36 200 -16 0 -19 -8 -19 -55 0 -60 1 -59 -54 -44 -49 14 -126 -4 -156 -36 -12 -13 -24 -41 -27 -63 -5 -37 -4 -39 25 -45 46 -9 67 -47 52 -91 -12 -37 -10 -36 -117 -50 -50 -7 -45 -20 -74 179 -12 83 -25 154 -29 158 -12 13 -41 -4 -36 -22 3 -9 8 -44 11 -77 8 -69 11 -66 -90 -79 -48 -7 -52 -6 -63 19 -15 33 -36 33 -68 1 -35 -35 -29 -69 13 -73 29 -3 32 -7 42 -53 16 -73 14 -85 -16 -109 -38 -29 -67 -23 -71 16 -2 24 2 33 23 42 30 14 33 32 5 32 -26 0 -70 -43 -70 -67 0 -10 7 -29 16 -42 15 -20 23 -23 66 -19 33 4 57 13 71 27 22 22 23 24 14 151 -2 34 -1 35 48 46 100 24 102 22 112 -83 l6 -62 -42 -7 c-45 -7 -52 -30 -7 -27 40 3 32 -20 -28 -81 -72 -72 -168 -119 -253 -124 -79 -5 -103 11 -103 70 0 35 3 40 35 54 42 17 38 35 -7 31 l-31 -2 -44 159 c-24 88 -45 162 -47 164 -3 2 -13 2 -24 0 -18 -3 -17 -11 24 -153 24 -82 44 -160 44 -171 0 -18 -11 -24 -61 -38 -33 -10 -63 -16 -65 -13 -2 2 -26 73 -53 158 -41 132 -51 154 -69 157 -27 4 -27 5 5 -95 15 -45 25 -84 22 -87 -2 -2 -28 -7 -56 -11 -48 -6 -53 -5 -53 12 0 34 -42 63 -89 63 -86 0 -148 -71 -153 -175 -2 -39 0 -50 12 -50 10 0 17 15 21 46 10 65 37 117 70 134 70 37 113 2 90 -74 -7 -24 -19 -42 -31 -46 -35 -11 -22 -25 23 -25 48 0 67 -13 67 -47 0 -34 -32 -59 -84 -67 -56 -9 -58 -32 -3 -29 53 3 115 38 123 68 10 39 -4 73 -36 90 -17 9 -30 22 -30 29 0 18 60 46 98 46 38 0 58 -19 74 -71 12 -41 9 -49 -27 -63 -7 -2 -7 -7 0 -14 7 -8 37 -2 100 19 49 16 95 29 101 29 6 0 14 -18 17 -41 13 -95 97 -118 244 -65 87 31 176 102 248 199 19 25 29 28 170 46 259 34 577 46 845 32 129 -6 295 -19 368 -28 73 -8 136 -13 139 -10 11 12 -10 27 -37 27 l-30 0 6 63 c4 34 14 111 24 170 16 106 16 108 -3 119 -14 7 -22 7 -27 -1 -3 -6 -15 -83 -24 -171 -10 -88 -22 -162 -26 -165 -4 -3 -36 -2 -70 2 l-63 6 7 81 c20 258 20 276 -1 276 -18 0 -21 -10 -32 -100 -6 -56 -11 -129 -11 -163 0 -83 -7 -91 -63 -83 l-45 7 5 97 c5 93 5 99 -19 126 -20 24 -34 30 -81 34 -99 8 -127 -31 -127 -175 l0 -73 -60 0 -60 0 0 175 c0 168 -1 175 -20 175 -18 0 -20 -7 -20 -68z m335 -183 l0 -104 -62 -3 -63 -3 0 99 c0 82 3 102 18 114 26 23 44 26 77 13 l30 -11 0 -105z m-759 92 c35 -22 44 -50 44 -146 l0 -62 -37 -7 c-21 -3 -53 -6 -72 -6 -33 0 -33 1 -27 35 9 45 -14 90 -54 103 -34 12 -37 22 -13 58 30 47 105 58 159 25z"/>
 <path d="M6672 9982 c-18 -88 -25 -94 -92 -76 -30 7 -62 14 -72 14 -12 0 -18 10 -20 33 -3 29 -7 32 -38 35 -27 2 -41 -3 -59 -22 l-23 -24 29 -18 c15 -10 29 -19 31 -20 4 -2 -18 -107 -28 -131 -8 -18 -14 -21 -49 -16 -28 4 -41 2 -41 -6 0 -6 6 -13 13 -15 24 -7 372 -86 380 -86 19 0 4 22 -23 31 -17 6 -30 18 -30 28 0 9 18 81 40 161 29 105 36 148 28 157 -21 25 -34 12 -46 -45z m-114 -98 c37 -9 71 -20 76 -25 5 -4 -1 -39 -13 -78 -16 -53 -26 -71 -39 -71 -39 1 -126 27 -130 39 -4 13 16 129 25 144 6 9 3 10 81 -9z"/>
 <path d="M6925 10002 c-78 -37 -105 -90 -72 -143 10 -18 9 -23 -15 -40 -33 -24 -37 -67 -10 -92 10 -9 45 -26 77 -37 72 -25 78 -30 69 -64 -8 -33 -18 -33 -129 4 -93 31 -125 36 -125 21 0 -5 71 -33 158 -61 205 -68 402 -149 402 -165 0 -7 -6 -15 -14 -18 -8 -3 -19 -22 -26 -42 -18 -55 10 -102 85 -140 77 -39 178 -42 271 -7 l61 23 53 -31 c91 -53 374 -247 467 -319 170 -132 398 -342 573 -528 111 -119 150 -151 150 -124 0 5 -7 14 -15 21 -8 7 -15 20 -15 29 0 9 56 66 124 126 95 83 122 113 114 122 -16 20 -29 16 -66 -19 -19 -19 -36 -28 -39 -22 -2 6 -17 32 -34 58 -41 66 -102 93 -166 75 -39 -10 -44 -15 -38 -33 19 -58 17 -75 -8 -100 -15 -14 -37 -26 -49 -26 -28 0 -118 87 -118 114 0 9 48 69 108 132 59 62 107 119 107 126 0 34 -37 13 -105 -59 l-72 -77 -20 24 c-17 21 -19 34 -14 76 5 42 3 53 -10 58 -22 8 -21 9 -28 -19 -8 -31 -23 -31 -67 -2 -45 30 -51 73 -14 107 23 22 36 25 101 25 84 0 102 18 29 29 -74 12 -167 -11 -185 -45 -30 -56 17 -139 89 -159 30 -8 41 -18 54 -47 9 -21 22 -46 29 -55 11 -15 8 -22 -19 -49 l-31 -32 -34 28 c-18 15 -67 58 -108 96 -41 37 -96 85 -122 106 -27 21 -48 43 -48 49 0 5 45 68 100 138 56 71 99 134 97 140 -11 32 -46 3 -135 -113 -54 -69 -102 -126 -108 -128 -11 -4 -104 63 -104 75 0 4 45 68 99 142 72 99 96 138 89 148 -14 16 -35 15 -42 -3 -9 -25 -25 -17 -41 23 -32 75 -121 142 -190 142 -43 0 -75 -29 -75 -68 0 -25 -6 -30 -40 -41 -71 -21 -62 -85 18 -136 36 -23 40 -45 13 -69 -17 -16 -23 -14 -111 41 -51 32 -95 63 -97 70 -3 6 32 74 76 150 45 77 81 144 81 150 0 17 -32 25 -42 11 -5 -7 -15 -25 -24 -40 -8 -16 -17 -28 -20 -28 -2 0 -21 16 -40 36 -43 42 -71 54 -130 54 -58 0 -84 -25 -84 -81 0 -22 5 -49 11 -60 13 -25 96 -79 121 -79 29 0 21 19 -16 34 -83 35 -103 120 -36 156 31 17 101 -19 130 -65 l23 -38 -28 -51 c-16 -28 -39 -68 -52 -89 l-23 -37 -150 77 c-82 43 -150 81 -150 85 0 4 32 75 71 159 71 151 74 168 33 169 -6 0 -39 -65 -74 -145 -35 -80 -70 -151 -77 -156 -9 -8 -28 -4 -68 15 -30 13 -55 29 -55 33 0 5 21 58 46 118 25 61 52 127 61 147 16 41 12 68 -11 68 -9 0 -37 -57 -76 -155 -34 -85 -66 -157 -70 -160 -4 -2 -33 6 -64 18 -63 24 -59 15 -39 102 4 17 -8 24 -84 50 -79 27 -88 33 -91 57 -5 44 29 54 88 29 48 -21 112 -27 145 -15 22 9 46 59 38 81 -9 26 -44 63 -60 63 -17 0 -17 -15 2 -30 22 -18 19 -67 -4 -80 -50 -26 -149 7 -170 58 -23 56 9 91 122 132 16 5 25 14 22 20 -11 17 -48 11 -110 -18z m1141 -591 c47 -28 82 -80 94 -139 13 -58 16 -50 -64 -160 l-59 -81 -43 30 c-50 34 -53 48 -22 92 21 29 21 31 3 41 -45 27 -100 73 -103 88 -3 17 23 48 41 48 7 0 36 -18 66 -40 51 -39 81 -50 81 -31 0 5 -19 22 -42 38 -53 36 -68 71 -44 107 20 31 49 33 92 7z m-597 -69 c69 -37 126 -72 128 -78 2 -7 -17 -19 -43 -28 -128 -43 -274 6 -274 93 0 34 31 81 54 81 6 0 67 -31 135 -68z m1443 -762 c28 -22 58 -77 58 -108 0 -12 -28 -44 -71 -82 l-70 -63 -45 44 c-24 24 -44 49 -44 56 0 7 13 19 30 28 39 20 53 49 46 95 -3 20 -3 40 1 43 13 14 71 6 95 -13z"/>
 <path d="M5000 9707 c0 -27 19 -40 39 -27 20 12 8 45 -17 48 -18 3 -22 -1 -22 -21z"/>
 <path d="M3179 9643 c-35 -80 -60 -173 -57 -206 4 -45 35 -49 69 -8 22 27 31 31 54 25 28 -7 65 -56 65 -85 0 -16 -183 -129 -209 -129 -5 0 -49 65 -97 145 -48 80 -90 145 -94 145 -4 0 -12 -6 -17 -12 -7 -9 15 -55 79 -158 l90 -145 -26 -20 c-14 -11 -41 -29 -61 -40 -33 -17 -38 -17 -46 -4 -4 9 -17 26 -27 39 l-20 24 -81 -53 c-67 -44 -84 -51 -96 -41 -31 26 -18 58 39 94 89 57 111 113 65 162 -19 20 -31 24 -64 22 -28 -2 -40 -8 -40 -18 0 -11 9 -14 32 -12 25 3 35 -2 49 -23 16 -25 16 -27 -3 -53 -11 -15 -41 -40 -67 -56 -39 -24 -52 -28 -74 -20 -15 5 -33 22 -40 37 -13 27 -10 60 14 145 5 17 2 22 -13 22 -20 0 -34 -31 -48 -111 -10 -54 15 -104 59 -120 23 -8 36 -20 36 -31 0 -31 23 -68 45 -74 26 -6 77 14 124 50 44 33 58 33 73 0 10 -21 9 -27 -2 -34 -8 -5 -66 -46 -128 -92 -63 -45 -121 -87 -129 -93 -11 -8 -19 -3 -34 17 -11 14 -28 37 -38 49 l-18 23 -48 -32 c-87 -58 -160 -34 -160 52 0 38 5 51 34 80 19 20 54 43 78 53 43 18 58 43 26 43 -54 0 -165 -90 -179 -145 -10 -41 4 -90 37 -121 25 -24 38 -29 77 -28 30 1 61 9 86 24 l39 24 23 -30 c13 -16 24 -34 24 -40 0 -6 -24 -31 -52 -55 -29 -24 -72 -62 -96 -84 -24 -22 -47 -41 -52 -43 -4 -2 -58 54 -119 123 -104 116 -132 138 -145 116 -3 -4 46 -65 109 -135 63 -69 115 -130 115 -134 0 -5 -48 -52 -106 -106 l-105 -99 -40 39 c-21 21 -39 43 -39 50 0 7 17 21 38 31 20 11 46 35 56 52 18 31 18 35 3 67 -28 58 -136 113 -145 73 -2 -11 6 -19 22 -23 42 -10 86 -55 86 -86 0 -36 -41 -70 -84 -70 -25 0 -43 11 -81 50 -27 28 -55 50 -62 50 -26 0 -24 -23 6 -54 38 -40 39 -53 2 -61 -60 -13 -106 -90 -89 -152 11 -42 43 -63 95 -63 35 0 50 6 83 36 39 35 52 64 29 64 -6 0 -29 -16 -50 -35 -22 -20 -50 -35 -63 -35 -25 0 -66 41 -66 67 0 29 30 71 64 87 58 27 76 21 144 -47 34 -34 62 -66 62 -71 0 -5 -24 -34 -54 -65 -88 -91 -110 -121 -99 -132 7 -7 42 23 109 93 54 57 145 150 202 208 l103 105 21 -37 c12 -21 37 -45 55 -53 31 -15 36 -15 76 3 86 38 127 114 127 237 l0 82 58 45 c155 121 410 285 598 384 68 36 124 70 124 75 0 12 -31 11 -49 0 -11 -7 -19 -1 -32 28 -25 56 -62 81 -120 81 -61 0 -63 12 -15 115 19 40 31 76 28 79 -16 16 -35 1 -53 -41z m-571 -851 c11 -108 -83 -231 -157 -207 -22 7 -51 52 -51 79 0 18 178 168 194 163 6 -2 12 -18 14 -35z"/>
 <path d="M5315 9534 c-22 -2 -121 -8 -220 -14 -99 -7 -209 -16 -245 -21 -36 -6 -92 -14 -125 -19 -78 -11 -205 -36 -280 -54 -33 -8 -82 -20 -110 -26 -27 -6 -59 -15 -70 -19 -11 -5 -47 -16 -80 -26 -85 -25 -145 -45 -182 -61 -17 -8 -37 -14 -45 -14 -8 0 -18 -4 -23 -8 -6 -5 -32 -17 -60 -27 -94 -34 -356 -163 -478 -234 -232 -136 -348 -216 -546 -377 -267 -217 -443 -394 -678 -684 -234 -287 -450 -650 -583 -980 -12 -30 -26 -63 -31 -72 -5 -10 -9 -23 -9 -29 0 -6 -6 -25 -14 -42 -8 -18 -19 -48 -24 -67 -6 -19 -26 -87 -45 -150 -59 -197 -107 -412 -122 -550 -3 -30 -10 -75 -15 -100 -5 -25 -16 -161 -25 -302 -15 -236 -15 -280 0 -515 9 -142 20 -278 25 -303 5 -25 12 -70 15 -100 7 -59 18 -124 41 -235 168 -792 559 -1484 1177 -2081 637 -616 1369 -984 2202 -1110 414 -62 899 -62 1340 0 91 13 129 20 305 56 30 7 109 27 175 45 621 175 1166 486 1667 952 588 547 1012 1240 1188 1943 62 246 88 398 121 705 15 142 15 618 0 760 -32 300 -59 454 -125 723 -35 141 -109 362 -160 477 -7 17 -24 55 -37 85 -44 102 -165 334 -229 440 -235 388 -590 799 -950 1098 -187 156 -348 269 -578 406 -89 54 -370 196 -386 196 -3 0 -34 14 -69 30 -36 17 -70 30 -75 30 -5 0 -23 7 -38 15 -16 8 -36 15 -45 15 -9 0 -18 3 -22 6 -8 9 -206 74 -223 74 -8 0 -22 4 -32 9 -9 6 -57 19 -107 31 -49 11 -106 25 -125 30 -19 5 -78 16 -130 25 -52 9 -117 20 -145 25 -115 22 -666 54 -770 44z m430 -74 c553 -44 981 -155 1433 -371 456 -217 877 -531 1245 -927 554 -596 891 -1267 1024 -2042 41 -240 52 -395 52 -720 0 -332 -9 -455 -53 -720 -27 -163 -99 -466 -125 -525 -5 -11 -17 -45 -26 -75 -89 -291 -318 -734 -530 -1026 -48 -65 -91 -121 -94 -124 -4 -3 -24 -27 -45 -55 -124 -164 -444 -489 -611 -621 -22 -17 -65 -51 -95 -76 -265 -214 -602 -415 -890 -532 -36 -15 -74 -31 -85 -36 -52 -24 -147 -59 -177 -65 -18 -4 -37 -11 -43 -15 -5 -4 -26 -11 -45 -14 -19 -4 -44 -11 -55 -16 -98 -45 -514 -127 -775 -152 -140 -14 -661 -17 -785 -5 -154 15 -340 39 -360 48 -11 4 -49 11 -85 15 -36 3 -69 9 -75 13 -5 3 -37 11 -70 18 -33 6 -76 16 -95 21 -19 6 -55 16 -80 22 -25 6 -52 15 -61 20 -9 5 -34 12 -55 16 -22 3 -43 10 -49 14 -5 4 -26 11 -45 15 -19 4 -41 11 -50 15 -20 10 -48 22 -160 66 -191 75 -501 241 -690 369 -199 136 -428 323 -603 494 -92 90 -324 346 -357 395 -8 13 -31 42 -52 67 -78 95 -240 341 -329 502 -212 382 -380 889 -430 1292 -5 44 -14 103 -19 130 -31 168 -37 673 -10 945 41 430 138 810 304 1200 291 683 835 1329 1501 1782 222 151 357 224 700 379 149 67 469 162 700 207 361 71 807 99 1150 72z"/>
 <path d="M5520 9317 c-57 -29 -22 -97 50 -97 73 0 91 75 24 100 -33 13 -44 12 -74 -3z"/>
 <path d="M5950 9284 c0 -3 33 -52 73 -110 100 -144 127 -197 118 -232 -12 -43 -49 -50 -117 -22 l-57 23 -19 -22 c-10 -13 -18 -27 -18 -32 0 -13 89 -55 148 -69 126 -29 209 39 188 155 -4 20 -32 72 -62 116 -30 44 -52 84 -49 88 2 5 44 0 92 -9 48 -10 89 -17 91 -15 2 1 5 18 9 38 l5 35 -53 11 c-197 39 -349 59 -349 45z"/>
 <path d="M4781 9259 c-52 -10 -96 -21 -98 -22 -3 -4 96 -459 101 -465 7 -6 224 37 264 54 50 19 108 83 122 133 22 80 7 181 -37 239 -58 77 -177 98 -352 61z m188 -63 c39 -21 59 -55 70 -123 18 -111 -13 -182 -88 -203 -68 -19 -65 -24 -94 148 -15 86 -27 162 -27 169 0 24 97 30 139 9z"/>
 <path d="M4385 9161 c-27 -9 -51 -24 -52 -32 -2 -8 24 -93 56 -189 38 -112 56 -179 50 -186 -5 -6 -30 -17 -54 -24 -25 -7 -48 -16 -50 -20 -4 -7 13 -70 19 -70 2 0 29 9 62 20 32 12 113 37 179 56 66 20 121 37 123 39 2 2 -4 17 -13 35 -13 25 -20 30 -38 24 -62 -20 -92 -23 -101 -11 -4 7 -31 93 -60 192 -28 98 -55 180 -61 181 -5 2 -32 -5 -60 -15z"/>
 <path d="M6490 9159 c-74 -30 -112 -103 -118 -224 -3 -86 -2 -92 26 -136 46 -71 147 -112 237 -95 50 10 117 74 145 139 28 64 31 158 7 204 -47 90 -204 149 -297 112z m177 -80 c37 -31 -4 -214 -63 -276 -37 -39 -66 -42 -99 -8 -29 28 -31 55 -9 138 31 119 73 173 128 162 16 -3 35 -10 43 -16z"/>
 <path d="M5523 9070 c-45 -18 -37 -82 14 -101 33 -12 80 5 88 32 8 25 -11 58 -41 69 -29 12 -32 12 -61 0z"/>
 <path d="M3949 8996 c-65 -26 -101 -50 -147 -99 l-34 -35 30 -21 c17 -11 33 -21 38 -21 4 0 33 25 65 56 53 49 63 55 96 52 28 -2 41 -9 50 -27 14 -30 1 -59 -50 -111 -74 -75 -94 -139 -62 -200 34 -66 136 -80 233 -31 31 16 70 43 86 60 29 30 29 31 11 51 -25 28 -42 25 -86 -15 -67 -60 -119 -60 -119 0 0 30 9 46 53 93 30 31 61 68 70 82 38 56 7 138 -66 170 -55 26 -100 25 -168 -4z"/>
 <path d="M7037 8928 c-13 -29 -43 -96 -67 -148 -24 -52 -46 -97 -48 -100 -2 -3 -17 12 -34 33 -33 41 -43 44 -76 22 l-22 -16 44 -54 c24 -29 47 -63 51 -74 8 -25 83 -67 96 -54 11 11 199 374 199 385 0 8 -93 58 -109 58 -5 0 -20 -24 -34 -52z"/>
 <path d="M3600 8807 c-151 -93 -231 -150 -226 -163 9 -23 260 -366 271 -370 8 -4 228 127 273 162 7 5 -31 54 -42 54 -7 0 -49 -23 -95 -51 -46 -28 -86 -47 -90 -42 -3 5 -17 26 -30 47 -28 45 -26 47 66 104 l61 37 -24 30 -23 29 -48 -30 c-26 -17 -60 -38 -75 -48 l-26 -17 -31 45 c-48 69 -44 76 69 146 l100 61 -15 29 c-9 17 -19 30 -23 30 -4 -1 -45 -24 -92 -53z"/>
 <path d="M7315 8776 c-44 -19 -111 -99 -129 -153 -44 -129 10 -247 141 -305 50 -22 63 -18 63 21 0 23 -7 31 -41 46 -22 10 -47 28 -55 39 -17 24 -19 89 -3 117 10 19 13 18 52 -24 73 -78 166 -87 231 -22 49 48 54 84 21 150 -53 110 -186 172 -280 131z m150 -78 c45 -21 46 -88 0 -134 -32 -32 -60 -30 -96 5 -39 39 -37 62 11 105 44 40 48 41 85 24z"/>
 <path d="M5350 8724 c-99 -7 -384 -35 -440 -44 -443 -70 -871 -236 -1224 -474 -137 -93 -152 -103 -276 -206 -217 -180 -442 -418 -602 -636 -46 -62 -91 -116 -100 -119 -10 -4 -18 -14 -18 -24 0 -10 -28 -67 -63 -127 -216 -373 -346 -761 -404 -1206 -24 -186 -24 -680 0 -858 103 -753 396 -1340 942 -1885 680 -681 1507 -994 2493 -945 108 6 222 14 252 20 30 5 100 16 155 25 244 38 552 136 792 250 464 221 893 575 1230 1015 346 452 558 988 624 1580 15 136 15 594 0 730 -62 556 -246 1049 -556 1490 -187 267 -544 629 -795 808 -71 51 -210 143 -265 175 -61 36 -340 177 -352 177 -4 1 -26 9 -48 20 -22 10 -98 38 -170 61 -71 23 -138 46 -147 50 -18 9 -263 61 -368 79 -151 25 -542 51 -660 44z m430 -64 c701 -64 1302 -332 1842 -824 162 -148 389 -403 462 -519 17 -28 17 -29 -2 -23 -15 5 -43 -11 -109 -61 -48 -37 -172 -131 -274 -208 -102 -77 -257 -194 -345 -260 -87 -67 -298 -226 -469 -355 -170 -128 -409 -308 -530 -400 -121 -91 -359 -272 -530 -400 -170 -129 -335 -253 -365 -277 -30 -24 -61 -43 -69 -43 -13 0 -247 173 -831 616 -107 81 -404 305 -660 498 -256 192 -532 401 -615 464 -82 63 -225 171 -317 240 -93 69 -168 132 -168 140 0 33 199 279 360 446 543 561 1181 877 1940 961 143 16 527 18 680 5z m2421 -1512 c73 -112 224 -416 273 -550 98 -267 155 -528 187 -862 23 -236 -5 -740 -51 -931 -5 -22 -20 -87 -34 -145 -74 -311 -208 -624 -390 -905 -99 -154 -129 -196 -245 -335 -332 -399 -764 -731 -1191 -915 -47 -20 -98 -42 -115 -50 -29 -12 -194 -67 -303 -100 -63 -19 -225 -54 -307 -66 -33 -4 -87 -13 -120 -18 -33 -6 -172 -13 -309 -17 l-248 -7 6 199 c7 220 13 433 21 684 2 91 7 244 10 340 5 192 12 438 20 770 3 118 8 260 10 315 3 55 7 211 11 346 l7 247 -23 12 c-12 6 -23 10 -26 8 -6 -7 -13 -173 -19 -448 -3 -146 -10 -400 -15 -565 -13 -423 -19 -624 -25 -900 -3 -132 -8 -271 -10 -310 -2 -38 -7 -200 -10 -360 -3 -159 -8 -301 -11 -314 -5 -23 -5 -23 -107 -16 -56 4 -131 11 -167 16 -36 6 -94 14 -130 19 -98 13 -385 82 -417 99 -10 5 -56 22 -103 36 -47 15 -89 31 -95 35 -5 4 -26 12 -45 19 -20 6 -90 38 -156 70 -922 450 -1614 1354 -1769 2311 -40 244 -46 357 -41 665 6 303 7 324 45 538 34 193 88 390 158 572 70 182 247 519 279 532 9 3 180 -119 452 -324 1115 -842 1629 -1229 1887 -1425 154 -116 290 -214 303 -216 16 -3 40 9 80 40 31 24 242 183 467 353 226 170 482 363 570 430 88 67 381 287 650 490 270 203 596 449 725 547 129 98 241 178 248 178 7 0 40 -42 73 -92z"/>
 <path d="M5710 7776 c-3 -2 -48 -11 -100 -21 -52 -9 -129 -22 -170 -30 -41 -7 -127 -22 -190 -34 -63 -11 -133 -24 -155 -28 l-40 -9 -3 -92 -3 -92 351 0 351 0 -3 152 c-3 129 -5 153 -18 156 -9 1 -18 1 -20 -2z"/>
 <path d="M3680 7341 l0 -59 138 -4 137 -3 65 -39 c153 -92 251 -153 335 -209 264 -176 491 -409 640 -659 45 -75 50 -90 55 -158 l5 -75 30 0 c29 0 30 1 35 60 l5 60 280 0 280 0 5 -60 c5 -56 7 -60 30 -60 25 0 25 2 30 95 6 106 6 107 110 230 215 256 458 459 866 723 l151 97 67 0 67 0 -3 58 -3 57 -1662 3 -1663 2 0 -59z m1370 -87 c11 -28 14 -242 4 -268 -8 -22 -26 -20 -58 5 -92 72 -409 203 -583 240 -58 12 -74 25 -56 42 3 4 159 7 345 7 l338 0 10 -26z m529 12 c9 -11 11 -100 9 -333 -3 -285 -5 -322 -21 -346 -9 -15 -21 -27 -25 -27 -4 0 -52 41 -107 91 -55 51 -126 112 -157 136 l-58 44 0 218 c0 120 3 221 7 224 3 4 82 7 173 7 132 0 170 -3 179 -14z m1156 -2 c0 -7 -72 -60 -160 -119 -88 -60 -204 -142 -259 -184 -54 -42 -110 -85 -125 -95 -101 -75 -317 -288 -378 -373 -21 -29 -44 -53 -50 -53 -18 0 -19 810 -1 828 17 17 973 13 973 -4z m-2305 -86 c137 -34 197 -54 309 -102 97 -42 254 -132 294 -170 l27 -25 -2 -233 c-3 -213 -5 -233 -21 -236 -10 -2 -20 4 -24 15 -24 66 -212 292 -355 426 -162 152 -366 311 -420 329 -7 3 -9 12 -5 22 8 20 25 18 197 -26z m871 -470 c89 -74 199 -179 199 -190 0 -14 -65 -38 -103 -38 -69 0 -126 38 -161 107 -22 44 -22 173 0 173 2 0 31 -23 65 -52z"/>
 <path d="M6295 7172 c-133 -60 -299 -163 -417 -259 -51 -40 -68 -60 -68 -78 0 -14 5 -25 10 -25 6 0 44 26 84 59 149 118 317 219 468 281 48 20 85 40 81 43 -16 16 -101 5 -158 -21z"/>
 <path d="M7310 5534 c-30 -8 -125 -29 -210 -48 -85 -19 -192 -44 -237 -55 -45 -11 -124 -29 -175 -40 -51 -11 -174 -39 -273 -61 -99 -23 -216 -49 -260 -59 -73 -16 -80 -20 -83 -43 -4 -29 -6 -27 173 -159 133 -97 139 -101 179 -101 36 0 438 83 541 111 39 11 95 23 125 27 30 3 105 17 165 30 61 14 125 27 143 29 28 5 275 55 340 70 16 4 22 13 22 33 0 28 -35 72 -56 72 -6 0 -21 12 -35 26 -13 15 -58 52 -100 84 -140 107 -151 111 -259 84z"/>
 <path d="M4089 5440 c-77 -23 -129 -95 -129 -179 0 -29 5 -62 11 -74 6 -12 120 -132 254 -267 l243 -245 32 -135 c38 -157 42 -165 79 -184 31 -17 259 -76 289 -76 11 0 30 8 43 19 l23 18 -72 79 c-68 73 -72 80 -72 124 0 56 27 88 83 97 34 5 40 1 116 -71 44 -42 84 -76 89 -76 19 0 42 38 42 68 0 38 -54 242 -75 283 -19 35 -32 42 -120 63 -38 9 -99 24 -135 33 l-65 16 -238 239 c-274 275 -305 296 -398 268z m122 -170 c22 -12 26 -58 7 -82 -46 -57 -124 6 -83 68 16 26 44 31 76 14z m207 -224 c112 -110 124 -126 118 -149 -4 -18 -15 -29 -32 -33 -23 -6 -39 7 -145 112 -94 93 -119 124 -119 146 0 25 21 47 44 48 5 0 66 -56 134 -124z"/>
 <path d="M3676 5340 c-59 -18 -96 -76 -96 -150 0 -41 0 -41 -67 -71 l-66 -30 -31 29 c-42 40 -68 52 -110 52 -56 0 -87 -17 -159 -88 -124 -121 -136 -185 -56 -276 l32 -37 -25 -62 -26 -62 -59 -10 c-119 -20 -143 -58 -143 -227 0 -165 34 -218 147 -228 l55 -5 26 -63 26 -62 -32 -33 c-85 -88 -69 -159 65 -289 59 -57 88 -78 115 -83 53 -10 95 3 139 42 l39 35 62 -25 63 -25 6 -56 c7 -64 27 -99 72 -126 27 -17 51 -20 158 -20 114 0 129 2 160 23 43 28 69 80 69 135 0 37 3 44 27 53 15 6 42 17 60 26 32 15 34 14 71 -16 54 -42 89 -54 140 -46 37 5 57 19 124 83 126 120 144 187 72 270 -19 22 -34 47 -34 55 0 8 11 40 25 71 24 55 26 56 65 56 44 0 110 23 110 38 0 5 -39 19 -87 31 -95 24 -142 48 -166 85 -9 13 -32 86 -52 162 l-36 139 -243 245 c-271 272 -270 269 -265 398 l3 67 -75 2 c-41 1 -87 -2 -103 -7z m306 -547 c89 -42 157 -107 204 -196 39 -72 39 -72 38 -187 0 -105 -3 -120 -29 -175 -33 -70 -130 -172 -194 -204 -216 -111 -462 -30 -572 187 -33 64 -34 70 -34 187 0 115 1 123 32 185 52 105 136 180 248 222 39 14 71 18 145 15 82 -2 104 -7 162 -34z"/>
 <path d="M7455 5129 c-212 -12 -455 -57 -595 -110 -102 -40 -214 -102 -218 -122 -2 -8 8 -23 23 -33 23 -15 36 -15 129 -5 149 17 280 -5 326 -54 27 -28 21 -41 -23 -50 -42 -8 -200 -41 -308 -66 -48 -10 -99 -19 -113 -19 -19 0 -63 29 -153 103 -69 56 -156 126 -192 155 -36 29 -81 67 -98 84 l-32 31 -83 -17 c-46 -10 -105 -22 -133 -27 -27 -5 -72 -14 -100 -19 -27 -6 -83 -16 -123 -24 -41 -8 -76 -16 -78 -18 -2 -3 -7 -1260 -4 -1365 0 -6 48 -44 108 -84 197 -133 357 -242 412 -284 95 -72 76 -70 323 -35 122 17 236 33 254 36 17 2 33 11 36 18 3 8 6 130 7 272 0 142 4 262 8 265 4 4 165 25 357 48 193 23 402 48 465 56 63 8 175 22 249 31 73 8 139 18 147 21 18 7 18 33 -1 147 -8 50 -26 165 -40 256 -63 409 -88 547 -101 568 -24 37 -63 32 -507 -68 -118 -27 -137 -26 -137 3 0 44 128 126 310 197 152 60 160 64 160 77 0 20 -55 43 -97 42 -21 -1 -101 -5 -178 -10z"/>
 <path d="M1927 4517 c-116 -28 -128 -33 -125 -51 3 -22 29 -26 81 -13 36 10 35 -1 -9 -68 -36 -57 -41 -87 -14 -93 10 -2 30 22 54 63 29 50 43 65 55 60 87 -35 153 -57 158 -52 11 12 -7 38 -34 47 -67 24 -103 44 -103 56 0 7 21 20 48 27 34 10 47 19 47 33 0 27 -14 26 -158 -9z"/>
 <path d="M8782 4278 c-12 -39 -19 -75 -15 -79 14 -14 248 -96 260 -92 13 5 52 101 56 137 1 15 -4 21 -17 21 -13 0 -24 -15 -38 -52 -21 -57 -24 -59 -63 -41 -22 10 -25 17 -21 37 20 84 19 91 -1 91 -16 0 -23 -11 -33 -45 -7 -25 -16 -48 -20 -50 -4 -3 -22 0 -39 6 -35 12 -37 25 -17 84 16 44 13 55 -12 55 -12 0 -23 -20 -40 -72z"/>
 <path d="M2050 4154 c-113 -93 -123 -104 -114 -128 7 -18 9 -18 114 -16 134 3 205 13 205 30 0 10 -13 17 -40 20 -37 5 -40 8 -54 52 -14 46 -14 49 9 73 19 20 21 27 10 40 -7 8 -15 15 -19 15 -3 0 -53 -39 -111 -86z m75 -58 c7 -21 6 -29 -5 -36 -18 -12 -100 -13 -100 -2 0 12 74 71 85 68 6 -1 14 -15 20 -30z"/>
 <path d="M8676 4000 c-36 -43 -44 -95 -19 -128 24 -33 148 -101 185 -102 56 0 119 87 104 146 -6 21 -35 35 -37 17 -7 -78 -28 -113 -67 -113 -15 0 -54 15 -87 33 -49 26 -61 37 -63 60 -2 16 4 39 12 53 15 22 18 23 49 11 26 -11 32 -19 32 -43 0 -43 27 -42 48 1 9 20 17 38 17 41 0 8 -109 54 -129 54 -11 0 -31 -14 -45 -30z"/>
 <path d="M2221 3769 c-98 -52 -96 -52 -122 -6 -12 21 -39 23 -39 2 0 -9 19 -52 43 -95 29 -56 48 -80 61 -80 14 0 17 5 11 23 -20 65 -24 61 87 119 56 31 103 62 103 69 0 29 -52 17 -144 -32z"/>
 <path d="M8513 3684 c-18 -31 -33 -64 -33 -74 0 -20 200 -150 232 -150 20 0 91 114 86 138 -6 32 -27 21 -55 -27 -29 -52 -40 -59 -74 -41 -24 14 -24 31 1 81 37 71 -3 84 -44 14 -30 -50 -32 -51 -64 -29 -27 19 -28 39 -2 82 25 40 26 62 3 62 -11 0 -31 -22 -50 -56z"/>
 <path d="M2347 3526 c-123 -79 -126 -82 -105 -103 16 -15 25 -11 135 58 65 42 118 82 118 90 0 32 -52 17 -148 -45z"/>
 <path d="M8340 3415 c-22 -30 -40 -62 -40 -72 1 -23 202 -176 226 -171 37 7 21 28 -70 94 -60 43 -96 76 -96 87 0 10 12 34 26 53 25 32 27 64 5 64 -6 0 -29 -25 -51 -55z"/>
 <path d="M2480 3335 c-101 -72 -128 -106 -96 -118 8 -3 33 7 55 24 23 16 46 29 53 29 14 0 58 -59 58 -77 0 -7 -18 -24 -40 -40 -41 -29 -51 -65 -20 -71 20 -4 232 166 227 181 -7 23 -37 18 -82 -14 -25 -18 -46 -30 -48 -28 -2 2 -13 17 -25 33 -32 42 -28 59 23 95 37 27 44 36 34 47 -6 8 -17 14 -23 14 -6 0 -58 -34 -116 -75z"/>
 <path d="M8136 3156 c-25 -29 -46 -58 -46 -63 0 -13 196 -187 215 -191 8 -2 18 4 21 13 5 12 -9 30 -47 63 -30 26 -72 63 -94 83 l-39 37 38 46 c36 44 40 66 11 66 -7 0 -34 -24 -59 -54z"/>
 <path d="M2763 3068 c-102 -182 -105 -189 -92 -204 6 -8 19 -14 29 -14 32 0 270 112 270 127 0 20 -25 27 -59 15 -26 -9 -32 -7 -60 22 -33 34 -38 55 -20 73 13 13 2 53 -15 53 -6 0 -30 -33 -53 -72z m59 -75 c27 -24 23 -30 -32 -58 -58 -29 -64 -20 -25 38 29 42 32 43 57 20z"/>
 <path d="M7909 2915 c-36 -19 -61 -74 -52 -115 4 -20 28 -56 63 -94 52 -55 61 -61 98 -61 50 0 90 27 115 77 16 33 16 40 4 70 -8 18 -39 57 -70 86 -48 44 -61 52 -94 52 -21 -1 -50 -7 -64 -15z m134 -83 c53 -52 61 -88 27 -122 -34 -34 -62 -25 -119 34 -57 61 -62 85 -26 122 33 33 56 26 118 -34z"/>
 <path d="M2986 2756 c-47 -52 -86 -100 -86 -108 0 -15 48 -63 90 -91 34 -23 85 -22 110 3 21 21 23 26 24 80 1 32 4 35 51 48 49 14 68 28 59 44 -8 12 -54 9 -108 -7 -27 -8 -55 -15 -63 -15 -23 0 -14 32 23 76 19 24 32 48 29 54 -15 25 -48 4 -129 -84z m65 -86 c23 -23 29 -35 23 -52 -9 -30 -9 -30 -39 -30 -24 0 -75 36 -75 52 0 12 41 60 51 60 6 0 24 -13 40 -30z"/>
 <path d="M7674 2700 c-29 -12 -74 -68 -74 -92 0 -32 26 -79 76 -136 42 -48 49 -52 91 -52 40 0 50 5 85 40 23 23 38 47 36 57 -5 29 -32 25 -53 -9 -11 -18 -33 -37 -49 -43 -27 -9 -32 -7 -78 45 -27 30 -51 64 -54 76 -8 32 13 64 52 80 37 16 41 38 8 41 -10 1 -28 -2 -40 -7z"/>
 <path d="M3655 2243 l-68 -117 25 -19 c13 -10 47 -31 75 -47 43 -25 53 -27 63 -15 9 11 4 19 -27 39 -21 14 -43 26 -50 26 -7 0 -13 7 -13 15 0 17 27 75 35 75 2 0 19 -9 37 -20 35 -21 78 -27 78 -10 0 5 -20 21 -45 36 -25 14 -45 31 -45 38 0 9 14 35 36 64 1 2 25 -8 53 -23 49 -24 71 -26 71 -5 0 11 -122 80 -142 80 -9 0 -44 -49 -83 -117z"/>
 <path d="M6980 2252 c-67 -33 -71 -91 -14 -204 39 -77 88 -96 161 -62 38 18 69 57 58 74 -11 17 -29 11 -58 -20 -28 -29 -60 -38 -84 -22 -15 9 -73 131 -73 153 0 20 41 59 63 59 18 0 47 -37 47 -61 0 -9 -7 -19 -15 -23 -20 -7 -19 -36 0 -36 28 0 75 30 75 48 0 9 -14 38 -30 65 -26 40 -35 47 -63 47 -17 0 -48 -8 -67 -18z"/>
 <path d="M3997 2188 c-8 -18 -33 -74 -57 -125 -66 -142 -43 -158 90 -63 47 34 86 57 88 52 1 -5 -11 -42 -27 -83 -30 -75 -28 -104 6 -97 17 3 113 246 105 266 -9 25 -49 10 -126 -48 -44 -33 -82 -58 -84 -55 -3 2 10 38 28 79 18 42 30 82 27 91 -10 26 -36 17 -50 -17z"/>
 <path d="M6696 2123 c-3 -10 -12 -60 -22 -111 -9 -53 -21 -91 -27 -89 -5 1 -22 37 -36 78 -21 59 -30 74 -46 74 -14 0 -19 -6 -17 -20 7 -43 76 -250 85 -257 26 -17 45 13 62 100 16 87 29 122 39 111 3 -2 18 -38 33 -79 28 -73 56 -100 69 -67 3 8 -18 73 -46 146 -40 103 -55 131 -70 131 -10 0 -21 -8 -24 -17z"/>
 <path d="M4373 2045 c-14 -10 -32 -47 -49 -100 -27 -81 -27 -86 -12 -118 26 -55 136 -90 167 -54 16 20 4 27 -46 27 -30 0 -49 6 -63 20 -24 24 -24 21 0 98 29 93 36 102 74 102 47 0 61 -20 46 -65 -9 -27 -17 -35 -36 -35 -38 0 -29 -28 13 -39 48 -13 59 -4 73 65 9 43 9 58 -1 70 -35 42 -125 58 -166 29z"/>
 <path d="M6330 2009 c0 -18 50 -230 61 -256 9 -25 37 -31 45 -9 3 7 -10 71 -28 142 -30 113 -36 129 -56 132 -13 2 -22 -2 -22 -9z"/>
 <path d="M4687 1863 c-15 -71 -27 -135 -27 -144 0 -19 21 -31 37 -21 13 8 66 269 58 282 -4 6 -14 10 -24 10 -14 0 -22 -22 -44 -127z"/>
 <path d="M6123 1963 c-45 -134 -102 -176 -103 -76 0 45 -9 63 -33 63 -19 0 -20 -4 -13 -67 13 -134 22 -198 29 -210 10 -16 41 -16 108 -2 94 20 126 83 71 138 -15 15 -34 30 -42 33 -13 4 -11 13 9 56 13 28 21 58 18 66 -8 21 -36 20 -44 -1z m21 -179 c19 -18 19 -20 6 -44 -10 -18 -86 -47 -97 -36 -3 2 -7 22 -10 44 -4 33 -2 41 13 45 39 10 73 6 88 -9z"/>
 <path d="M4925 1903 c-4 -26 -13 -88 -21 -137 -12 -75 -12 -92 -1 -103 21 -21 37 -9 102 77 33 44 64 80 69 80 4 0 7 -39 5 -87 -4 -84 -3 -88 18 -91 29 -4 31 10 35 163 3 115 2 120 -18 123 -16 2 -34 -16 -79 -78 -33 -44 -63 -80 -68 -80 -4 0 -5 28 -1 63 13 102 12 112 -13 115 -19 3 -22 -3 -28 -45z"/>
 <path d="M5708 1923 c-32 -2 -58 -9 -60 -16 -6 -19 8 -252 16 -265 9 -15 130 -16 157 -1 32 17 11 29 -51 29 l-59 0 -7 36 c-3 19 -3 39 2 44 5 5 32 10 59 12 36 2 50 7 50 18 0 11 -14 16 -57 18 l-58 3 0 38 0 38 52 6 c28 4 56 11 61 16 14 14 -1 31 -26 29 -12 -1 -47 -3 -79 -5z"/>
 <path d="M5326 1908 c-3 -7 -7 -70 -10 -140 -4 -99 -2 -129 9 -138 8 -6 44 -10 92 -8 61 2 78 6 78 18 0 11 -15 16 -62 18 l-63 3 0 44 0 45 53 0 c59 0 72 6 56 27 -7 7 -32 13 -61 13 l-49 0 3 43 3 42 63 3 c63 3 72 8 50 30 -17 17 -157 16 -162 0z"/>
 <path d="M10043 5447 c-16 -18 -37 -55 -47 -82 -10 -28 -22 -53 -25 -57 -4 -4 -34 -3 -67 3 -146 26 -202 -39 -135 -156 16 -28 36 -57 45 -64 22 -19 20 -28 -15 -69 -63 -72 -76 -143 -33 -183 24 -22 33 -24 119 -23 l93 1 17 -46 c24 -62 57 -105 94 -121 49 -20 88 9 131 98 l35 72 75 -6 c85 -7 121 3 146 41 23 35 12 79 -36 143 -22 29 -40 57 -40 63 0 6 16 31 35 56 49 64 64 116 43 151 -22 37 -71 53 -138 46 -30 -3 -62 -7 -71 -10 -13 -3 -21 8 -35 48 -43 119 -131 163 -191 95z m99 -17 c28 -21 72 -115 65 -134 -3 -7 -26 -20 -51 -30 -44 -17 -48 -17 -91 0 -25 9 -45 22 -45 29 0 29 33 102 57 127 32 33 33 33 65 8z m-202 -163 c26 -13 26 -17 16 -77 -7 -38 -67 -93 -96 -88 -23 5 -80 96 -80 129 0 16 7 32 18 38 24 15 112 13 142 -2z m495 -3 c21 -21 13 -56 -24 -109 -42 -59 -53 -63 -95 -34 -38 25 -44 38 -48 103 -3 35 0 41 22 47 49 14 128 10 145 -7z m-388 -40 c2 -6 -8 -16 -22 -22 -23 -11 -25 -10 -25 14 0 20 4 25 22 22 12 -2 23 -8 25 -14z m178 6 c4 -6 4 -18 1 -26 -4 -12 -10 -13 -26 -4 -11 6 -20 17 -20 25 0 17 36 20 45 5z m-45 -63 l55 -32 0 -70 0 -70 -55 -32 c-30 -18 -63 -33 -75 -33 -11 0 -42 14 -68 30 l-48 31 3 72 3 72 50 32 c27 18 57 33 65 33 9 0 40 -15 70 -33z m-230 -102 c0 -18 -5 -25 -20 -25 -20 0 -28 28 -13 43 15 16 33 6 33 -18z m357 14 c14 -14 6 -39 -13 -39 -8 0 -14 10 -14 25 0 27 9 32 27 14z m-388 -79 c26 -22 36 -40 41 -74 4 -25 3 -51 -1 -57 -8 -14 -116 -25 -154 -15 -19 5 -25 13 -25 34 0 42 67 143 94 142 6 -1 26 -14 45 -30z m475 -1 c62 -73 70 -133 20 -145 -27 -7 -140 -1 -149 7 -3 3 -2 28 2 54 5 39 14 56 42 82 20 18 41 33 48 33 6 0 23 -14 37 -31z m-354 -84 c15 -18 13 -20 -17 -29 -18 -6 -23 -3 -23 12 0 33 19 42 40 17z m187 -1 c1 -5 -1 -15 -5 -22 -10 -15 -42 -5 -42 13 0 22 40 30 47 9z m-63 -54 c42 -19 46 -23 40 -48 -16 -65 -64 -132 -95 -132 -30 0 -89 97 -89 146 0 11 67 50 91 53 4 1 27 -8 53 -19z"/>
 <path d="M10082 5098 c-7 -7 -12 -21 -12 -33 0 -12 5 -26 12 -33 7 -7 21 -12 33 -12 43 0 59 44 27 73 -22 20 -43 22 -60 5z"/>
 <path d="M741 5393 c-13 -9 -39 -49 -57 -88 l-33 -73 -90 6 c-86 4 -90 4 -115 -21 -42 -42 -32 -98 30 -173 19 -23 34 -45 34 -49 0 -4 -13 -24 -29 -44 -68 -87 -79 -146 -34 -188 27 -24 32 -25 120 -21 l92 5 18 -50 c21 -60 80 -127 112 -127 48 0 79 28 115 103 l36 73 87 -4 c79 -4 91 -2 116 18 37 29 37 81 -1 141 -16 24 -36 50 -45 58 -23 19 -21 31 12 71 62 77 77 138 42 181 -18 22 -26 24 -119 24 l-99 0 -18 50 c-23 64 -82 125 -122 125 -16 0 -39 -7 -52 -17z m98 -49 c11 -14 27 -45 37 -69 20 -53 13 -65 -46 -85 -54 -18 -114 3 -118 42 -3 24 25 94 50 126 17 20 55 14 77 -14z m-203 -155 c9 -7 12 -22 8 -38 -3 -14 -7 -35 -9 -47 -3 -11 -23 -35 -45 -53 -47 -38 -56 -35 -95 33 -37 65 -39 82 -14 107 19 19 29 21 82 15 33 -3 66 -11 73 -17z m472 5 c12 -8 22 -22 22 -30 0 -24 -36 -87 -67 -117 l-29 -27 -38 32 c-35 30 -38 38 -39 88 -2 53 -1 55 28 61 54 12 100 9 123 -7z m-381 -41 c2 -6 -5 -17 -16 -23 -19 -10 -21 -8 -21 15 0 19 5 26 17 23 9 -2 18 -8 20 -15z m178 -7 c0 -22 -14 -29 -34 -17 -19 12 -6 43 16 39 10 -2 18 -12 18 -22z m-45 -49 c55 -32 55 -32 58 -87 5 -81 -1 -92 -68 -128 l-60 -33 -54 31 c-48 27 -55 35 -61 70 -4 22 -4 57 0 78 5 33 14 43 58 69 29 17 57 32 62 32 6 1 35 -14 65 -32z m-230 -107 c0 -31 -16 -41 -26 -15 -8 19 2 45 16 45 5 0 10 -13 10 -30z m366 -9 c-11 -18 -36 -13 -36 7 0 10 3 22 7 26 10 10 37 -20 29 -33z m-367 -78 c10 -7 18 -99 10 -109 -13 -17 -110 -27 -141 -15 -14 5 -28 17 -32 26 -8 23 20 84 56 122 l32 33 35 -27 c20 -14 38 -28 40 -30z m445 26 c90 -107 63 -173 -63 -153 l-56 9 2 55 c1 50 4 57 40 87 21 18 41 33 45 33 3 0 18 -14 32 -31z m-347 -102 c-2 -7 -11 -13 -20 -15 -12 -3 -17 4 -17 23 0 23 2 25 21 15 11 -6 18 -17 16 -23z m183 7 c0 -19 -28 -30 -41 -17 -7 7 -5 16 6 27 18 18 35 13 35 -10z m-60 -50 c22 -9 40 -19 40 -23 0 -4 -7 -28 -15 -52 -18 -53 -58 -99 -85 -99 -26 0 -70 68 -77 119 -5 38 -4 41 28 55 45 19 61 19 109 0z"/>
 <path d="M768 5029 c-22 -12 -23 -52 -4 -68 8 -7 27 -11 43 -9 38 4 45 49 11 72 -26 19 -27 19 -50 5z"/>
 <path d="M7790 1880 c0 -50 -19 -97 -54 -131 -16 -17 -24 -33 -20 -43 9 -24 18 -20 57 23 55 61 77 181 35 189 -15 3 -18 -4 -18 -38z"/>
 <path d="M7762 1663 c-8 -3 2 -25 33 -68 25 -35 48 -70 51 -79 4 -10 -18 -30 -69 -65 l-74 -50 -22 25 c-25 29 -33 30 -53 7 -36 -42 -31 -113 7 -113 13 0 27 5 30 10 5 8 11 8 20 0 16 -14 85 -125 85 -139 0 -13 -138 -94 -149 -86 -5 3 -51 79 -102 170 -51 91 -98 165 -105 165 -29 0 -22 -25 33 -129 44 -83 55 -113 46 -121 -18 -19 -83 -14 -114 9 -32 24 -38 25 -59 11 -12 -8 -11 -13 9 -34 21 -23 22 -26 7 -49 -29 -43 -101 -62 -125 -33 -24 29 -23 79 4 154 25 71 26 92 2 92 -21 0 -61 -110 -65 -177 -4 -58 -2 -64 26 -93 23 -22 40 -30 67 -30 45 0 69 12 120 60 31 30 50 39 85 42 25 3 52 8 61 12 12 5 22 -2 38 -29 11 -20 21 -42 21 -48 0 -12 -92 -59 -305 -158 -49 -23 -100 -45 -112 -50 -20 -7 -25 3 -88 161 -74 186 -85 206 -108 197 -17 -6 -12 -23 77 -250 25 -65 46 -122 46 -128 0 -5 -13 -15 -30 -20 -33 -12 -39 -26 -14 -36 32 -12 442 175 659 300 112 64 415 267 415 278 0 18 -29 21 -52 5 -12 -9 -27 -16 -33 -16 -6 0 -60 70 -121 155 -60 85 -113 154 -119 154 -5 0 -16 -3 -23 -6z m165 -260 c22 -32 43 -63 47 -70 4 -8 -21 -30 -68 -63 -41 -27 -79 -50 -83 -50 -8 0 -93 131 -93 143 0 9 133 97 146 97 6 0 29 -26 51 -57z"/>
 <path d="M3075 1552 c-11 -4 -32 -15 -47 -25 l-27 -19 20 -31 c28 -47 25 -81 -12 -111 -38 -32 -54 -33 -96 0 -31 23 -53 25 -53 3 0 -8 371 -258 428 -288 28 -15 21 -27 -46 -71 -54 -35 -92 -38 -139 -9 -26 17 -37 19 -46 10 -9 -9 -6 -17 13 -32 76 -61 148 -52 247 28 l41 34 80 -40 c76 -38 409 -191 416 -191 2 0 7 7 10 16 4 11 -4 19 -29 30 -19 8 -35 20 -35 28 0 7 32 91 71 185 50 121 68 176 61 183 -6 6 -17 8 -24 5 -7 -2 -44 -78 -82 -168 -38 -90 -75 -170 -81 -177 -9 -10 -25 -7 -78 15 -37 16 -67 33 -67 39 0 7 22 58 50 115 27 57 50 109 50 116 0 7 -10 17 -21 24 -29 15 -95 -4 -109 -31 -9 -17 -6 -25 16 -45 l27 -25 -32 -65 c-18 -36 -36 -65 -41 -65 -17 0 -154 78 -158 89 -2 6 37 86 87 177 83 150 99 184 87 184 -2 0 -11 3 -19 6 -15 5 -27 -12 -97 -141 -73 -135 -112 -195 -123 -195 -20 1 -107 59 -107 72 0 12 39 79 141 244 42 67 54 95 46 103 -19 19 -33 12 -55 -26 -41 -73 -37 -72 -83 -19 -59 67 -118 89 -184 68z m123 -52 c20 -13 41 -38 53 -66 l20 -45 -57 -89 c-32 -50 -61 -90 -65 -90 -13 0 -129 80 -129 89 0 5 16 25 35 44 38 38 45 75 23 123 -11 23 -10 28 7 40 27 20 75 17 113 -6z"/>
 <path d="M6810 1133 c-24 -74 -62 -133 -89 -139 -55 -11 -75 -40 -51 -69 18 -21 37 -19 75 11 44 33 82 26 125 -22 22 -26 30 -45 30 -74 0 -52 -8 -68 -41 -85 -39 -21 -66 -19 -79 5 -16 29 -4 56 35 80 22 13 32 26 28 36 -9 24 -33 16 -74 -25 -41 -40 -47 -63 -28 -105 25 -55 122 -50 179 9 28 29 33 41 32 80 0 31 -8 57 -23 79 -25 37 -77 76 -102 76 -29 0 -27 17 7 93 35 77 36 87 5 87 -11 0 -22 -13 -29 -37z"/>
 <path d="M5440 1134 c-39 -17 -100 -72 -100 -90 0 -25 29 -21 56 8 83 87 224 92 224 8 0 -42 -37 -65 -91 -56 -35 6 -40 4 -37 -11 2 -10 13 -19 26 -21 21 -3 22 -8 22 -101 l0 -98 -117 -5 c-65 -3 -124 -3 -130 0 -25 9 -12 31 61 100 61 58 72 73 61 82 -8 7 -19 10 -25 8 -23 -7 -190 -183 -199 -209 -17 -50 25 -75 73 -44 20 14 25 14 35 1 18 -22 24 -87 12 -120 l-12 -29 -116 7 c-64 3 -119 9 -122 12 -3 2 3 91 12 196 9 105 14 194 11 199 -3 5 -13 9 -23 9 -16 0 -20 -12 -26 -85 -4 -47 -10 -87 -15 -90 -4 -2 -44 -2 -89 2 -76 6 -81 7 -81 29 0 39 -11 54 -40 54 -34 0 -80 -35 -80 -60 0 -11 12 -26 28 -34 29 -15 29 -15 21 -78 -15 -112 -13 -108 -67 -102 -26 3 -85 14 -132 24 -47 10 -104 21 -127 25 -24 4 -46 11 -49 16 -6 10 24 149 32 149 2 0 20 -11 40 -25 49 -33 103 -33 141 -1 26 23 28 29 28 105 0 83 -9 106 -39 95 -11 -4 -15 -13 -10 -26 3 -11 6 -43 6 -71 -1 -43 -5 -56 -27 -74 -35 -31 -51 -29 -92 12 -38 38 -39 50 -8 170 15 55 12 65 -14 65 -13 0 -21 -14 -31 -55 -7 -30 -18 -55 -23 -55 -5 0 -25 14 -44 30 -29 26 -41 30 -94 30 -54 0 -64 -3 -90 -29 -37 -38 -41 -103 -7 -146 38 -49 158 -87 158 -51 0 9 -21 21 -55 31 -31 9 -59 23 -65 35 -18 34 -12 79 16 107 21 21 32 24 61 20 42 -7 77 -29 98 -61 14 -21 13 -32 -11 -129 -23 -90 -30 -107 -46 -107 -11 0 -72 16 -135 35 -129 39 -143 41 -143 21 0 -15 17 -22 140 -55 275 -74 466 -115 635 -136 72 -9 136 -18 142 -20 9 -3 6 -18 -12 -51 -14 -26 -25 -57 -25 -70 0 -56 88 -103 166 -88 28 5 32 9 23 20 -6 8 -29 14 -51 14 -22 0 -48 5 -59 10 -27 15 -25 78 4 121 19 28 29 34 58 33 18 -1 163 -5 322 -10 l287 -7 0 22 c0 21 -3 22 -38 16 l-39 -6 -6 77 c-4 42 -7 137 -7 211 0 131 0 134 24 144 52 24 60 96 17 140 -26 26 -36 29 -93 29 -35 -1 -79 -8 -98 -16z m-464 -370 l46 -7 -7 -71 c-9 -102 -11 -106 -48 -106 -32 0 -147 17 -153 22 -2 2 20 158 25 177 1 2 21 1 46 -3 25 -3 66 -9 91 -12z m569 -113 c4 -44 4 -85 0 -90 -3 -7 -43 -11 -95 -11 l-89 0 2 58 c0 31 -3 72 -7 90 l-8 32 95 0 95 0 7 -79z"/>
 <path d="M6460 1067 c0 -2 20 -89 44 -193 25 -104 41 -192 38 -196 -7 -6 -219 -51 -293 -61 l-36 -5 -10 71 c-6 40 -9 75 -7 78 2 4 21 2 42 -4 48 -13 86 -3 118 28 31 31 31 74 0 140 -29 63 -50 82 -71 65 -12 -10 -11 -17 12 -47 38 -49 39 -117 2 -145 -28 -21 -59 -18 -96 10 -17 13 -25 35 -33 87 -16 111 -17 114 -40 108 -19 -5 -20 -11 -14 -66 7 -60 7 -60 -17 -53 -86 25 -149 18 -185 -21 -34 -37 -34 -124 0 -158 33 -33 94 -48 146 -36 48 11 55 15 45 31 -5 8 -22 10 -52 5 -58 -8 -99 8 -112 45 -15 44 0 82 41 104 31 17 41 18 74 8 68 -20 76 -30 90 -128 21 -140 26 -130 -61 -143 -42 -6 -95 -11 -119 -11 -70 0 -107 -10 -104 -29 3 -12 13 -15 48 -13 65 4 239 29 448 63 101 17 186 28 189 25 9 -9 -39 -67 -64 -77 -13 -5 -42 -9 -64 -9 -32 0 -39 -3 -39 -20 0 -17 7 -20 40 -20 47 0 92 20 114 52 19 26 31 18 22 -15 -11 -45 -44 -74 -96 -87 -33 -8 -50 -17 -50 -27 0 -13 9 -15 51 -10 28 4 63 14 76 23 31 19 61 86 69 151 8 58 16 70 55 78 44 10 29 30 -21 30 l-43 0 -46 185 c-42 168 -48 185 -68 188 -13 2 -23 1 -23 -1z"/>
 </g>

</svg>